<svg version="1.1" xmlns="http://www.w3.org/2000/svg" viewBox="0 0 36.241160966656366 56.67593956608198" width="72.48232193331273" height="113.35187913216396"><!-- svg-source:excalidraw --><metadata></metadata><defs><style class="style-fonts">
      </style></defs><rect x="0" y="0" width="36.241160966656366" height="56.67593956608198" fill="transparent"></rect><g stroke-linecap="round"><g transform="translate(10.497230943261513 10) rotate(0 0 18.33796978304099)"><path d="M0 0 C-0.56 14.12, -0.76 26.84, 0 36.68 M0 0 C-0.11 12.97, -0.09 26.59, 0 36.68" stroke="#98c889" stroke-width="4" fill="none"></path></g></g><mask></mask><g stroke-linecap="round"><g transform="translate(15.743172590467964 13.409116636082217) rotate(0 -0.17559600579184576 15.364331241321906)"><path d="M0 0 C-0.06 9.48, 0.19 19.08, -0.35 30.73 M0 0 C0.28 7.72, 0.18 14.68, -0.35 30.73" stroke="#98c889" stroke-width="4" fill="none"></path></g></g><mask></mask><g stroke-linecap="round"><g transform="translate(20.722069409090295 19.808473618067183) rotate(0 0.00830090209200307 9.839123102714893)"><path d="M0 0 C0.4 5.7, 0.15 10.28, 0.02 19.68 M0 0 C0.12 6.33, 0.5 13.01, 0.02 19.68" stroke="#98c889" stroke-width="4" fill="none"></path></g></g><mask></mask><g stroke-linecap="round"><g transform="translate(26.19472033149708 26.133122481227474) rotate(0 -0.033842139298030816 3.8548112253279214)"><path d="M0 0 C0.14 2.29, -0.09 4.62, -0.07 7.71 M0 0 C-0.05 2.3, -0.06 4.51, -0.07 7.71" stroke="#98c889" stroke-width="4" fill="none"></path></g></g><mask></mask></svg>