<svg version="1.1" xmlns="http://www.w3.org/2000/svg" viewBox="0 0 131.1856677516189 126.82346343514928" width="262.3713355032378" height="253.64692687029856"><!-- svg-source:excalidraw --><metadata></metadata><defs><style class="style-fonts">
      </style></defs><rect x="0" y="0" width="131.1856677516189" height="126.82346343514928" fill="transparent"></rect><g stroke-linecap="round" transform="translate(41.43580774951988 10) rotate(0 39.874930001049506 38.51998119411928)"><path d="M79.75 38.52 C79.75 40.53, 79.58 42.56, 79.26 44.55 C78.93 46.53, 78.44 48.51, 77.8 50.42 C77.16 52.33, 76.35 54.22, 75.4 56.01 C74.46 57.8, 73.36 59.54, 72.13 61.16 C70.91 62.79, 69.54 64.34, 68.07 65.76 C66.6 67.18, 64.99 68.5, 63.31 69.68 C61.63 70.86, 59.83 71.93, 57.98 72.84 C56.13 73.75, 54.17 74.53, 52.2 75.15 C50.22 75.78, 48.17 76.25, 46.11 76.57 C44.06 76.88, 41.95 77.04, 39.87 77.04 C37.8 77.04, 35.69 76.88, 33.64 76.57 C31.58 76.25, 29.53 75.78, 27.55 75.15 C25.58 74.53, 23.62 73.75, 21.77 72.84 C19.92 71.93, 18.12 70.86, 16.44 69.68 C14.75 68.5, 13.15 67.18, 11.68 65.76 C10.21 64.34, 8.84 62.79, 7.62 61.16 C6.39 59.54, 5.29 57.8, 4.35 56.01 C3.4 54.22, 2.59 52.33, 1.95 50.42 C1.31 48.51, 0.82 46.53, 0.49 44.55 C0.17 42.56, 0 40.53, 0 38.52 C0 36.51, 0.17 34.48, 0.49 32.49 C0.82 30.51, 1.31 28.53, 1.95 26.62 C2.59 24.71, 3.4 22.82, 4.35 21.03 C5.29 19.24, 6.39 17.5, 7.62 15.88 C8.84 14.25, 10.21 12.7, 11.68 11.28 C13.15 9.86, 14.75 8.54, 16.44 7.36 C18.12 6.18, 19.92 5.11, 21.77 4.2 C23.62 3.29, 25.58 2.51, 27.55 1.89 C29.53 1.26, 31.58 0.79, 33.64 0.47 C35.69 0.16, 37.8 0, 39.87 0 C41.95 0, 44.06 0.16, 46.11 0.47 C48.17 0.79, 50.22 1.26, 52.2 1.89 C54.17 2.51, 56.13 3.29, 57.98 4.2 C59.83 5.11, 61.63 6.18, 63.31 7.36 C64.99 8.54, 66.6 9.86, 68.07 11.28 C69.54 12.7, 70.91 14.25, 72.13 15.88 C73.36 17.5, 74.46 19.24, 75.4 21.03 C76.35 22.82, 77.16 24.71, 77.8 26.62 C78.44 28.53, 78.93 30.51, 79.26 32.49 C79.58 34.48, 79.67 37.52, 79.75 38.52 C79.83 39.52, 79.83 37.52, 79.75 38.52" stroke="none" stroke-width="0" fill="#98c889"></path><path d="M79.75 38.52 C79.75 40.53, 79.58 42.56, 79.26 44.55 C78.93 46.53, 78.44 48.51, 77.8 50.42 C77.16 52.33, 76.35 54.22, 75.4 56.01 C74.46 57.8, 73.36 59.54, 72.13 61.16 C70.91 62.79, 69.54 64.34, 68.07 65.76 C66.6 67.18, 64.99 68.5, 63.31 69.68 C61.63 70.86, 59.83 71.93, 57.98 72.84 C56.13 73.75, 54.17 74.53, 52.2 75.15 C50.22 75.78, 48.17 76.25, 46.11 76.57 C44.06 76.88, 41.95 77.04, 39.87 77.04 C37.8 77.04, 35.69 76.88, 33.64 76.57 C31.58 76.25, 29.53 75.78, 27.55 75.15 C25.58 74.53, 23.62 73.75, 21.77 72.84 C19.92 71.93, 18.12 70.86, 16.44 69.68 C14.75 68.5, 13.15 67.18, 11.68 65.76 C10.21 64.34, 8.84 62.79, 7.62 61.16 C6.39 59.54, 5.29 57.8, 4.35 56.01 C3.4 54.22, 2.59 52.33, 1.95 50.42 C1.31 48.51, 0.82 46.53, 0.49 44.55 C0.17 42.56, 0 40.53, 0 38.52 C0 36.51, 0.17 34.48, 0.49 32.49 C0.82 30.51, 1.31 28.53, 1.95 26.62 C2.59 24.71, 3.4 22.82, 4.35 21.03 C5.29 19.24, 6.39 17.5, 7.62 15.88 C8.84 14.25, 10.21 12.7, 11.68 11.28 C13.15 9.86, 14.75 8.54, 16.44 7.36 C18.12 6.18, 19.92 5.11, 21.77 4.2 C23.62 3.29, 25.58 2.51, 27.55 1.89 C29.53 1.26, 31.58 0.79, 33.64 0.47 C35.69 0.16, 37.8 0, 39.87 0 C41.95 0, 44.06 0.16, 46.11 0.47 C48.17 0.79, 50.22 1.26, 52.2 1.89 C54.17 2.51, 56.13 3.29, 57.98 4.2 C59.83 5.11, 61.63 6.18, 63.31 7.36 C64.99 8.54, 66.6 9.86, 68.07 11.28 C69.54 12.7, 70.91 14.25, 72.13 15.88 C73.36 17.5, 74.46 19.24, 75.4 21.03 C76.35 22.82, 77.16 24.71, 77.8 26.62 C78.44 28.53, 78.93 30.51, 79.26 32.49 C79.58 34.48, 79.67 37.52, 79.75 38.52 C79.83 39.52, 79.83 37.52, 79.75 38.52" stroke="rgb(152 200 137)" stroke-width="2" fill="none"></path></g><g stroke-linecap="round" transform="translate(10 39.783501046910715) rotate(0 39.874930001049506 38.51998119411928)"><path d="M79.75 38.52 C79.75 40.53, 79.58 42.56, 79.26 44.55 C78.93 46.53, 78.44 48.51, 77.8 50.42 C77.16 52.33, 76.35 54.22, 75.4 56.01 C74.46 57.8, 73.36 59.54, 72.13 61.16 C70.91 62.79, 69.54 64.34, 68.07 65.76 C66.6 67.18, 64.99 68.5, 63.31 69.68 C61.63 70.86, 59.83 71.93, 57.98 72.84 C56.13 73.75, 54.17 74.53, 52.2 75.15 C50.22 75.78, 48.17 76.25, 46.11 76.57 C44.06 76.88, 41.95 77.04, 39.87 77.04 C37.8 77.04, 35.69 76.88, 33.64 76.57 C31.58 76.25, 29.53 75.78, 27.55 75.15 C25.58 74.53, 23.62 73.75, 21.77 72.84 C19.92 71.93, 18.12 70.86, 16.44 69.68 C14.75 68.5, 13.15 67.18, 11.68 65.76 C10.21 64.34, 8.84 62.79, 7.62 61.16 C6.39 59.54, 5.29 57.8, 4.35 56.01 C3.4 54.22, 2.59 52.33, 1.95 50.42 C1.31 48.51, 0.82 46.53, 0.49 44.55 C0.17 42.56, 0 40.53, 0 38.52 C0 36.51, 0.17 34.48, 0.49 32.49 C0.82 30.51, 1.31 28.53, 1.95 26.62 C2.59 24.71, 3.4 22.82, 4.35 21.03 C5.29 19.24, 6.39 17.5, 7.62 15.88 C8.84 14.25, 10.21 12.7, 11.68 11.28 C13.15 9.86, 14.75 8.54, 16.44 7.36 C18.12 6.18, 19.92 5.11, 21.77 4.2 C23.62 3.29, 25.58 2.51, 27.55 1.89 C29.53 1.26, 31.58 0.79, 33.64 0.47 C35.69 0.16, 37.8 0, 39.87 0 C41.95 0, 44.06 0.16, 46.11 0.47 C48.17 0.79, 50.22 1.26, 52.2 1.89 C54.17 2.51, 56.13 3.29, 57.98 4.2 C59.83 5.11, 61.63 6.18, 63.31 7.36 C64.99 8.54, 66.6 9.86, 68.07 11.28 C69.54 12.7, 70.91 14.25, 72.13 15.88 C73.36 17.5, 74.46 19.24, 75.4 21.03 C76.35 22.82, 77.16 24.71, 77.8 26.62 C78.44 28.53, 78.93 30.51, 79.26 32.49 C79.58 34.48, 79.67 37.52, 79.75 38.52 C79.83 39.52, 79.83 37.52, 79.75 38.52" stroke="rgb(152 200 137)" stroke-width="4" fill="none"></path></g><g stroke-linecap="round" transform="translate(12.857474604228628 39.19395577438627) rotate(0 37.99600035390176 37.65880510584293)"><path d="M75.99 37.66 C75.99 39.62, 75.83 41.61, 75.52 43.55 C75.21 45.49, 74.74 47.43, 74.13 49.3 C73.52 51.16, 72.75 53.01, 71.85 54.76 C70.95 56.51, 69.9 58.21, 68.74 59.79 C67.57 61.38, 66.26 62.9, 64.86 64.29 C63.46 65.68, 61.93 66.97, 60.33 68.13 C58.73 69.28, 57.01 70.32, 55.25 71.21 C53.48 72.1, 51.62 72.87, 49.74 73.47 C47.85 74.08, 45.9 74.55, 43.94 74.85 C41.98 75.16, 39.98 75.32, 38 75.32 C36.01 75.32, 34.01 75.16, 32.05 74.85 C30.1 74.55, 28.14 74.08, 26.25 73.47 C24.37 72.87, 22.51 72.1, 20.75 71.21 C18.98 70.32, 17.27 69.28, 15.66 68.13 C14.06 66.97, 12.53 65.68, 11.13 64.29 C9.73 62.9, 8.42 61.38, 7.26 59.79 C6.09 58.21, 5.04 56.51, 4.14 54.76 C3.24 53.01, 2.47 51.16, 1.86 49.3 C1.25 47.43, 0.78 45.49, 0.47 43.55 C0.16 41.61, 0 39.62, 0 37.66 C0 35.7, 0.16 33.71, 0.47 31.77 C0.78 29.83, 1.25 27.89, 1.86 26.02 C2.47 24.15, 3.24 22.31, 4.14 20.56 C5.04 18.81, 6.09 17.11, 7.26 15.52 C8.42 13.93, 9.73 12.42, 11.13 11.03 C12.53 9.64, 14.06 8.35, 15.66 7.19 C17.27 6.04, 18.98 5, 20.75 4.1 C22.51 3.21, 24.37 2.45, 26.25 1.84 C28.14 1.24, 30.1 0.77, 32.05 0.46 C34.01 0.16, 36.01 0, 38 0 C39.98 0, 41.98 0.16, 43.94 0.46 C45.9 0.77, 47.85 1.24, 49.74 1.84 C51.62 2.45, 53.48 3.21, 55.25 4.1 C57.01 5, 58.73 6.04, 60.33 7.19 C61.93 8.35, 63.46 9.64, 64.86 11.03 C66.26 12.42, 67.57 13.93, 68.74 15.52 C69.9 17.11, 70.95 18.81, 71.85 20.56 C72.75 22.31, 73.52 24.15, 74.13 26.02 C74.74 27.89, 75.21 29.83, 75.52 31.77 C75.83 33.71, 75.91 36.68, 75.99 37.66 C76.07 38.64, 76.07 36.68, 75.99 37.66" stroke="rgb(152 200 137)" stroke-width="4" fill="none"></path></g><g stroke-linecap="round" transform="translate(16.028168383811135 41.41400062533103) rotate(0 35.03780457014727 34.991396053195785)"><path d="M70.08 34.99 C70.08 36.82, 69.93 38.66, 69.64 40.47 C69.36 42.27, 68.93 44.07, 68.36 45.8 C67.8 47.54, 67.09 49.25, 66.26 50.88 C65.43 52.5, 64.46 54.08, 63.38 55.56 C62.31 57.03, 61.11 58.44, 59.81 59.73 C58.52 61.02, 57.11 62.23, 55.63 63.3 C54.15 64.37, 52.57 65.34, 50.94 66.17 C49.32 67, 47.6 67.71, 45.87 68.27 C44.13 68.83, 42.32 69.27, 40.52 69.55 C38.71 69.84, 36.86 69.98, 35.04 69.98 C33.21 69.98, 31.36 69.84, 29.56 69.55 C27.75 69.27, 25.95 68.83, 24.21 68.27 C22.47 67.71, 20.76 67, 19.13 66.17 C17.5 65.34, 15.92 64.37, 14.44 63.3 C12.96 62.23, 11.55 61.02, 10.26 59.73 C8.97 58.44, 7.77 57.03, 6.69 55.56 C5.62 54.08, 4.65 52.5, 3.82 50.88 C2.99 49.25, 2.28 47.54, 1.71 45.8 C1.15 44.07, 0.72 42.27, 0.43 40.47 C0.15 38.66, 0 36.82, 0 34.99 C0 33.17, 0.15 31.32, 0.43 29.52 C0.72 27.72, 1.15 25.91, 1.71 24.18 C2.28 22.44, 2.99 20.73, 3.82 19.11 C4.65 17.48, 5.62 15.9, 6.69 14.42 C7.77 12.95, 8.97 11.54, 10.26 10.25 C11.55 8.96, 12.96 7.76, 14.44 6.68 C15.92 5.61, 17.5 4.64, 19.13 3.81 C20.76 2.99, 22.47 2.28, 24.21 1.71 C25.95 1.15, 27.75 0.72, 29.56 0.43 C31.36 0.15, 33.21 0, 35.04 0 C36.86 0, 38.71 0.15, 40.52 0.43 C42.32 0.72, 44.13 1.15, 45.87 1.71 C47.6 2.28, 49.32 2.99, 50.94 3.81 C52.57 4.64, 54.15 5.61, 55.63 6.68 C57.11 7.76, 58.52 8.96, 59.81 10.25 C61.11 11.54, 62.31 12.95, 63.38 14.42 C64.46 15.9, 65.43 17.48, 66.26 19.11 C67.09 20.73, 67.8 22.44, 68.36 24.18 C68.93 25.91, 69.36 27.72, 69.64 29.52 C69.93 31.32, 70 34.08, 70.08 34.99 C70.15 35.9, 70.15 34.08, 70.08 34.99" stroke="rgb(152 200 137)" stroke-width="4" fill="none"></path></g></svg>